# xmcd
#
# Track frame offsets:
#	150
#	14580
#	29465
#	46720
#	59710
#	73272
#	88027
#	106281
#	121289
#	137212
#	154056
#	172318
#	185251
#	201527
#
# Disc length: 2957 seconds
#
# Revision: 0
# Processed by: cddbd v1.5.2PL0 Copyright (c) Steve Scherf et al.
# Submitted via: audiograbber 1.83.01
#
DISCID=d30b8b0e
DTITLE=Granger Smith - When the Good Guys Win
DYEAR=2017
DGENRE=Country
TTITLE0=Gimme Something
TTITLE1=You're In It
TTITLE2=Raise Up Your Glass
TTITLE3=Happens Like That
TTITLE4=Still Holds Up
TTITLE5=When the Good Guys Win
TTITLE6=Everybody Lives
TTITLE7=Stutter
TTITLE8=Never Too Old
TTITLE9=Love Ain't Blind
TTITLE10=4 Wheel Drive
TTITLE11=Reppin' My Roots
TTITLE12=Don't Tread on Me (feat. Earl Dibbles Jr.)
TTITLE13=Home Cooked Meal
EXTD=
EXTT0=
EXTT1=
EXTT2=
EXTT3=
EXTT4=
EXTT5=
EXTT6=
EXTT7=
EXTT8=
EXTT9=
EXTT10=
EXTT11=
EXTT12=
EXTT13=
PLAYORDER=
